<?xml version="1.0" encoding="utf-8"?>
<!-- Generator: Adobe Illustrator 24.1.2, SVG Export Plug-In . SVG Version: 6.00 Build 0)  -->
<svg version="1.1" id="Layer_1" xmlns="http://www.w3.org/2000/svg" xmlns:xlink="http://www.w3.org/1999/xlink" x="0px" y="0px"
	 viewBox="0 0 18 18" style="enable-background:new 0 0 18 18;" xml:space="preserve">
<style type="text/css">
	.st0{fill:#FFFFFF;}
</style>
<path class="st0" d="M16.3,4.7l-1.2,1.2l-3-3l1.2-1.2c0.2-0.2,0.7-0.2,0.9,0l2.1,2.1C16.6,4,16.6,4.4,16.3,4.7z M6.4,14.6l-3-3
	l7.7-7.7l3,3L6.4,14.6z M2.7,13.1l2.2,2.2l-3.1,0.9L2.7,13.1z M17.4,2.7l-2.1-2.1c-0.4-0.4-1.9-1.2-3,0L1.8,11.1
	c-0.1,0.1-0.2,0.2-0.2,0.3L0,17.1c-0.1,0.3,0,0.5,0.2,0.7C0.4,18,0.8,18,1,18l5.6-1.6c0.1,0,0.2-0.1,0.3-0.2L17.4,5.7
	C18.2,4.9,18.2,3.5,17.4,2.7z"/>
</svg>
