<?xml version="1.0" encoding="utf-8"?>
<!-- Generator: Adobe Illustrator 24.1.2, SVG Export Plug-In . SVG Version: 6.00 Build 0)  -->
<svg version="1.1" id="Layer_1" xmlns="http://www.w3.org/2000/svg" xmlns:xlink="http://www.w3.org/1999/xlink" x="0px" y="0px"
	 viewBox="0 0 20 20" style="enable-background:new 0 0 20 20;" xml:space="preserve">
<style type="text/css">
	.st0{fill:#FFFFFF;}
</style>
<path class="st0" d="M19.7,8.8c0,0-3.5-4.8-9.7-4.8C3.8,4,0.3,8.8,0.3,8.8c-0.3,0.3-0.3,0.7,0,1c0,0,3.3,4.7,9.7,4.8
	c6.3,0.1,9.7-4.8,9.7-4.8C19.9,9.5,19.9,9.1,19.7,8.8z M2.1,9.3c0,0,2.9-3.7,7.8-3.8C7.6,5.6,5.8,7.3,5.8,9.3s1.8,3.7,4.1,3.8
	C4.9,13.1,2.1,9.3,2.1,9.3z M10,7c1.4,0,2.6,1,2.6,2.3c0,1.3-1.1,2.3-2.6,2.3c-1.4,0-2.6-1-2.6-2.3C7.4,8,8.6,7,10,7z M10.1,13.1
	c2.3-0.1,4.1-1.7,4.1-3.8c0-2.1-1.9-3.8-4.2-3.8c5.1,0,8,3.8,8,3.8S15.1,13.1,10.1,13.1z"/>
</svg>
