<?xml version="1.0" encoding="utf-8"?>
<!-- Generator: Adobe Illustrator 24.1.2, SVG Export Plug-In . SVG Version: 6.00 Build 0)  -->
<svg version="1.1" id="Layer_1" xmlns="http://www.w3.org/2000/svg" xmlns:xlink="http://www.w3.org/1999/xlink" x="0px" y="0px"
	 viewBox="0 0 19.4 20" style="enable-background:new 0 0 19.4 20;" xml:space="preserve">
<style type="text/css">
	.st0{fill:#FFFFFF;}
</style>
<g transform="translate(0.000000,1280.000000) scale(0.100000,-0.100000)">
	<path class="st0" d="M95.5,12807.2c-0.1-0.2,0.2-3.8,0.7-10c0.5-5.3,0.8-9.9,0.9-10.1c0-0.4,0-0.4-1.5-0.5c-7.4-0.4-9.5-0.6-14-1.4
		c-16.8-2.8-31.6-9.4-44.3-20c-2.6-2.2-8.6-8.2-10.8-10.8c-12.7-15.3-20.2-33.5-21.9-53.3c-0.3-2.9-0.3-10.1,0-13
		c0.3-3,0.8-6.8,1-7.1c0.1-0.1,0.3-0.2,0.4-0.2c0.1,0,3.6,2.9,7.7,6.3c4.1,3.4,7.5,6.3,7.6,6.3c0.1,0,4.5-1.4,9.8-3.1
		c5.3-1.7,9.8-3.1,9.9-3.1c0.5,0,0.6,0.5,0.4,1.9c-0.2,1.9-0.2,8.5,0,10.8c1.8,17.3,10.3,31.8,23.9,40.8c8.4,5.6,18.7,8.8,30,9.6
		l1.6,0.1l-0.1-0.7c0-0.4-0.6-5.7-1.1-11.9c-0.7-8.1-1-11.2-0.8-11.4c0.3-0.4,0.7-0.2,2.5,1.4c5.5,5.1,12.5,14.1,18.1,23.7
		c3.1,5.3,7.4,14.4,7.4,15.7c0,0.2-0.2,1.1-0.5,2c-2.3,7.9-9.3,19.2-18.3,29.7c-2.1,2.5-7.9,8.3-8.3,8.3
		C95.7,12807.5,95.6,12807.4,95.5,12807.2z"/>
	<path class="st0" d="M132.1,12779.1c-0.1-0.2,0.1-2.1,1.3-9.7c0.8-5.2,1.5-9.6,1.5-9.8c0-0.2-2.2-2.3-7.8-7.1
		c-4.4-3.7-7.9-6.9-7.9-7c0-0.3,0.5-0.7,2.4-1.6c9.4-4.7,17.9-12.6,23.3-21.6c3.9-6.4,6.2-13.2,7.3-21.2c0.3-2,0.3-9.5,0-11.7
		c-1-7.7-2.9-14.2-6.4-21.4c-1.1-2.1-1.5-2.9-1.6-2.8c-1.8,1.4-19.1,14.1-19.2,14.1c-0.7,0-0.7-0.7,0.2-4.3
		c2.8-12.2,12.3-31.7,19.4-39.9c1-1.1,1.2-1.2,4.4-1.9c8.2-1.7,21.3-1.5,33.8,0.7c4.2,0.7,10.4,2.2,10.8,2.6
		c0.5,0.5-0.2,0.8-9.2,5.3l-9.2,4.5l0.9,1.6c1.3,2.3,4.1,7.9,5.2,10.4c10,23.4,10.4,47.6,1.3,70.3c-8.9,22.1-27,41.1-47.5,49.9
		c-1.2,0.5-2.3,1-2.4,1S132.2,12779.2,132.1,12779.1z"/>
	<path class="st0" d="M33.1,12682c-5.6-0.4-8.5-0.7-11.2-1.3c-1.2-0.3-1.2-0.3-2.2-1.3c-4.8-5-9.9-13.9-14.3-24.9
		c-2-5-3.9-10.9-5-15.6c-0.4-1.6-0.4-1.9-0.2-2.1c0.1-0.1,0.3-0.2,0.5-0.2c0.1,0,3.9,2.7,8.3,5.8s8.1,5.8,8.3,5.9
		c0.1,0.1,0.7-0.7,1.7-2.2c9.9-15,22.1-26.2,36.7-33.6c20-10.1,43.6-12.3,66.2-6.1c12,3.3,23.3,9,31.9,16.1c1.1,0.9,1.3,1.3,0.9,1.6
		c-0.2,0.2-18.1,6.4-18.4,6.4c-0.2,0,0-0.6-2.5,10.2c-1.2,5.3-2.2,9.8-2.3,10c-0.1,0.2-0.3,0.4-0.4,0.4c-0.1,0-1-0.5-1.8-1.1
		c-7.8-5.6-17-9.1-26.9-10.4c-2-0.3-6.9-0.4-9.4-0.3c-16.1,0.8-30.8,9.1-41.6,23.5c-2,2.6-2.8,3.9-2.6,4c0.1,0.1,4.9,2.4,10.8,5.2
		c10.4,4.9,10.6,5,10.6,5.5c0,0.4-0.1,0.5-0.9,0.8c-4.9,1.7-12.4,3-21.4,3.6C45.6,12681.9,34.7,12682.1,33.1,12682z"/>
</g>
</svg>
